<svg width="48" height="48" viewBox="0 0 48 48" fill="none" xmlns="http://www.w3.org/2000/svg">
<g clip-path="url(#clip0_22_758)">
<path d="M34.5 21.75C32.8284 21.749 31.173 22.0778 29.6286 22.7175C28.0843 23.3573 26.6813 24.2954 25.5 25.4782V4.5C25.4988 3.5058 25.1034 2.55265 24.4004 1.84964C23.6974 1.14663 22.7442 0.751167 21.75 0.75H4.5C3.5058 0.751167 2.55265 1.14663 1.84964 1.84964C1.14663 2.55265 0.751167 3.5058 0.75 4.5V36.75C0.751167 37.7442 1.14663 38.6974 1.84964 39.4004C2.55265 40.1034 3.5058 40.4988 4.5 40.5H21.75C22.2212 40.4966 22.6873 40.4033 23.1235 40.2251C24.1436 42.251 25.6858 43.9679 27.591 45.1986C29.4962 46.4294 31.6954 47.1293 33.9615 47.2263C36.2276 47.3232 38.4785 46.8135 40.4818 45.75C42.4852 44.6864 44.1684 43.1074 45.3577 41.1761C46.5469 39.2447 47.1992 37.0309 47.2472 34.7633C47.2951 32.4956 46.7369 30.2562 45.6303 28.2763C44.5237 26.2964 42.9088 24.6478 40.9521 23.5005C38.9955 22.3532 36.7682 21.7489 34.5 21.75ZM21.788 35.25H2.25V6H24V27.2833C22.5332 29.4039 21.7483 31.9215 21.75 34.5C21.75 34.7531 21.7733 35.0004 21.788 35.25ZM4.5 2.25H21.75C22.3465 2.25065 22.9185 2.48791 23.3403 2.90973C23.7621 3.33154 23.9993 3.90346 24 4.5H2.25C2.25065 3.90346 2.48791 3.33154 2.90973 2.90973C3.33154 2.48791 3.90346 2.25065 4.5 2.25ZM21.75 39H4.5C3.90346 38.9993 3.33154 38.7621 2.90973 38.3403C2.48791 37.9185 2.25065 37.3465 2.25 36.75H21.9611C22.0901 37.4654 22.2807 38.1684 22.5309 38.851C22.2817 38.9475 22.0172 38.998 21.75 39ZM34.5 45.75C32.275 45.75 30.0999 45.0902 28.2498 43.854C26.3998 42.6179 24.9578 40.8609 24.1064 38.8052C23.2549 36.7495 23.0321 34.4875 23.4662 32.3052C23.9002 30.1229 24.9717 28.1184 26.545 26.545C28.1184 24.9717 30.1229 23.9002 32.3052 23.4662C34.4875 23.0321 36.7495 23.2549 38.8052 24.1064C40.8609 24.9578 42.6179 26.3998 43.854 28.2498C45.0902 30.0999 45.75 32.275 45.75 34.5C45.7467 37.4827 44.5604 40.3422 42.4513 42.4513C40.3422 44.5604 37.4827 45.7467 34.5 45.75Z" fill="#FF6400"/>
<path d="M29.9158 30L29.1951 28.2188C29.1391 28.0802 29.0431 27.9616 28.9192 27.8781C28.7954 27.7946 28.6494 27.75 28.5 27.75H26.25V29.25H27.9946L31.9395 38.9985C32.0948 39.4372 32.3821 39.8171 32.7621 40.086C33.142 40.3548 33.5958 40.4995 34.0613 40.5H39.75V39H34.0613C33.9007 38.998 33.7449 38.9455 33.6158 38.85C33.4867 38.7545 33.3909 38.6208 33.342 38.4679L33.2539 38.25H39.75C39.9074 38.2501 40.0608 38.2006 40.1884 38.1085C40.3161 38.0165 40.4115 37.8866 40.4612 37.7373L42.7112 30.9873C42.7489 30.8746 42.7592 30.7545 42.7414 30.637C42.7235 30.5195 42.678 30.4079 42.6085 30.3115C42.539 30.215 42.4476 30.1365 42.3418 30.0823C42.236 30.0282 42.1189 30 42 30H29.9158ZM39.2095 36.75H32.647L30.5227 31.5H40.9592L39.2095 36.75Z" fill="#FF6400"/>
<path d="M34.5 42C34.5 41.5858 34.1642 41.25 33.75 41.25C33.3358 41.25 33 41.5858 33 42C33 42.4142 33.3358 42.75 33.75 42.75C34.1642 42.75 34.5 42.4142 34.5 42Z" fill="#FF6400"/>
<path d="M39.75 42C39.75 41.5858 39.4142 41.25 39 41.25C38.5858 41.25 38.25 41.5858 38.25 42C38.25 42.4142 38.5858 42.75 39 42.75C39.4142 42.75 39.75 42.4142 39.75 42Z" fill="#FF6400"/>
<path d="M22.4221 15.1677L21.6033 11.6594C21.5275 11.3291 21.3417 11.0344 21.0763 10.8237C20.8109 10.613 20.4817 10.4989 20.1428 10.5H6.333C5.99413 10.4989 5.66496 10.613 5.39955 10.8237C5.13415 11.0344 4.9483 11.3291 4.87255 11.6594L4.06323 15.1318C3.92581 15.5897 3.94183 16.08 4.10882 16.5279C4.27582 16.9758 4.58466 17.3569 4.98828 17.6131V28.5C4.98825 28.5985 5.00764 28.696 5.04532 28.7871C5.083 28.8781 5.13824 28.9607 5.20789 29.0304C5.27754 29.1 5.36023 29.1553 5.45124 29.193C5.54224 29.2307 5.63978 29.25 5.73828 29.25H20.7383C20.8368 29.25 20.9343 29.2307 21.0253 29.193C21.1163 29.1553 21.199 29.1 21.2687 29.0304C21.3383 28.9607 21.3936 28.8781 21.4312 28.7871C21.4689 28.696 21.4883 28.5985 21.4883 28.5V17.613C21.7017 17.4764 21.8905 17.3045 22.0464 17.1047C22.2547 16.8329 22.3971 16.5165 22.4623 16.1804C22.5275 15.8443 22.5137 15.4976 22.4221 15.1677ZM20.9705 15.5442C21.0023 15.6558 21.0078 15.7732 20.9866 15.8873C20.9654 16.0014 20.918 16.109 20.8481 16.2016C20.7782 16.2942 20.6878 16.3694 20.584 16.4212C20.4802 16.473 20.3658 16.4999 20.2497 16.5H18.4003L17.8378 12H20.1428L20.9705 15.5442ZM9.58779 16.5L10.1503 12H12.4883V16.5H9.58779ZM13.9883 12H16.3263L16.8888 16.5H13.9883V12ZM5.51488 15.5083L6.333 12H8.63876L8.07626 16.5H6.2268C6.11058 16.5004 5.99588 16.4736 5.89185 16.4218C5.78783 16.37 5.69736 16.2945 5.62768 16.2015C5.55501 16.1033 5.50686 15.9892 5.48724 15.8686C5.46762 15.748 5.4771 15.6245 5.51488 15.5083ZM15.4883 27.75H10.9883V24H15.4883V27.75ZM16.9883 27.75V23.25C16.9883 23.1515 16.9689 23.054 16.9312 22.963C16.8936 22.872 16.8383 22.7893 16.7687 22.7196C16.699 22.65 16.6163 22.5947 16.5253 22.557C16.4343 22.5194 16.3368 22.5 16.2383 22.5H10.2383C10.1398 22.5 10.0422 22.5194 9.95123 22.557C9.86022 22.5947 9.77753 22.65 9.70789 22.7196C9.63824 22.7893 9.58299 22.872 9.54531 22.963C9.50763 23.054 9.48825 23.1515 9.48827 23.25V27.75H6.48827V18H19.9883V27.75H16.9883Z" fill="#FF6400"/>
</g>
<defs>
<clipPath id="clip0_22_758">
<rect width="48" height="48" fill="white"/>
</clipPath>
</defs>
</svg>
