<?xml version="1.0"?><svg xmlns="http://www.w3.org/2000/svg"  viewBox="0 0 30 30" width="60px" height="60px" style="fill:#fff;">    <path d="M 1 7 C 0.448 7 0 7.448 0 8 L 0 22 C 0 22.552 0.448 23 1 23 L 17 23 C 17.292 23 17.569766 22.872391 17.759766 22.650391 L 29.759766 8.6503906 C 30.013766 8.3533906 30.071203 7.9370312 29.908203 7.5820312 C 29.744203 7.2280312 29.391 7 29 7 L 1 7 z M 7.1992188 12 C 8.8992187 12 9.4492188 12.349609 9.4492188 12.349609 C 9.4492188 12.349609 9.15 13.1 9 13.5 C 8.5 13.3 6.5 12.949219 6.5 13.699219 C 6.5 13.999219 6.5996094 14.199609 8.0996094 14.599609 C 8.6766094 14.732609 9.6046406 15.065406 9.8066406 15.941406 L 11.349609 12 L 13.099609 12 L 15 16.75 L 15 16.5 L 15 15.5 L 15 12 L 17.25 12 C 18.5 12 19.5 13 19.5 14.25 C 19.5 15.5 18.5 16.5 17.25 16.5 L 16.5 16.5 L 16.5 18 L 15.5 18 L 15 18 L 13.75 18 L 13.449219 17.099609 C 13.099219 17.249609 12.7 17.349609 12.25 17.349609 C 11.8 17.349609 11.400781 17.249609 11.050781 17.099609 L 10.75 18 L 9 18 L 9.2402344 17.386719 C 8.7832344 17.747719 8.0902187 18 7.1992188 18 C 5.5492187 18 5 17.550781 5 17.550781 L 5.4003906 16.25 C 6.3503906 16.85 8.0507812 16.75 8.0507812 16.25 C 8.0507812 15.75 7.3007813 15.700391 6.3007812 15.400391 C 5.3507812 15.100391 5 14.349219 5 13.699219 C 5 13.049219 5.4992188 12 7.1992188 12 z M 16.5 13.5 L 16.5 15 L 17.25 15 C 17.65 15 18 14.65 18 14.25 C 18 13.85 17.65 13.5 17.25 13.5 L 16.5 13.5 z M 12.25 13.699219 L 11.5 15.849609 C 11.7 15.999609 11.95 16.050781 12.25 16.050781 C 12.55 16.050781 12.8 15.999609 13 15.849609 L 12.25 13.699219 z"/></svg>