<svg height="512" viewBox="0 0 64 64" width="512" xmlns="http://www.w3.org/2000/svg" style="fill:#fff;"><g id="laptop-mobile-graph-money"><path d="m21 19a7 7 0 1 0 -7-7 6.995 6.995 0 0 0 7 7zm.5-6h-1a2.5 2.5 0 0 1 -.5-4.949v-1.051h2v1.051a2.5 2.5 0 0 1 2 2.449h-2a.5.5 0 0 0 -.5-.5h-1a.5.5 0 0 0 0 1h1a2.5 2.5 0 0 1 .5 4.949v1.051h-2v-1.051a2.5 2.5 0 0 1 -2-2.449h2a.5.5 0 0 0 .5.5h1a.5.5 0 0 0 0-1z"/><path d="m16 41h2v5h-2z"/><path d="m30 34h2v12h-2z"/><path d="m23 38h2v8h-2z"/><path d="m56 40h-15a3.009 3.009 0 0 1 -3-3v-12h-29a1 1 0 0 0 -1 1v26h48zm-46-12a1 1 0 0 1 1-1h3v2h-2v2h-2zm26 20h-24v-2h2v-6a1 1 0 0 1 1-1h4a1 1 0 0 1 1 1v6h1v-9a1 1 0 0 1 1-1h4a1 1 0 0 1 1 1v9h1v-13a1 1 0 0 1 1-1h4a1 1 0 0 1 1 1v13h2zm18 1a1 1 0 0 1 -1 1h-3v-2h2v-2h2z"/><path d="m36.22 56 .5-2h-9.44l.5 2z"/><path d="m40 37a1 1 0 0 0 1 1h18a1 1 0 0 0 1-1v-5h-20zm8-3h4v2h-4z"/><path d="m59 4h-18a1 1 0 0 0 -1 1v25h20v-25a1 1 0 0 0 -1-1zm-17 2h4v2h-4zm0 4h6v2h-6zm2 10h-2v-2h2zm14 0h-12v-2h12zm0-4h-16v-2h16zm0-4h-8v-2h8zm0-4h-10v-2h10z"/><path d="m37.97 57.24a1 1 0 0 1 -.97.76h-10a1 1 0 0 1 -.97-.76l-.81-3.24h-19.22v5a1 1 0 0 0 1 1h50a1 1 0 0 0 1-1v-5h-19.22z"/><path d="m38 13v-2h-8.06a8.363 8.363 0 0 1 0 2z"/><path d="m20 20.94v2.06h2v-2.06a8.363 8.363 0 0 1 -2 0z"/></g></svg>