<svg id="line_copy" viewBox="0 0 64 64" xmlns="http://www.w3.org/2000/svg" data-name="line copy" style="fill:#fff;"><path d="m32 2a30 30 0 1 0 30 30 30.03661 30.03661 0 0 0 -30-30zm17.86 45.36a3.57857 3.57857 0 0 1 -3.57 3.57h-28.58a3.57857 3.57857 0 0 1 -3.57-3.57.715.715 0 1 1 1.43 0 2.14245 2.14245 0 0 0 2.14 2.14h28.58a2.14245 2.14245 0 0 0 2.14-2.14v-5.72a.715.715 0 0 1 1.43 0zm-25.98-3.57h-1.17a3.04019 3.04019 0 0 1 0-6.08h3.49a.715.715 0 0 1 0 1.43h-3.49a1.61023 1.61023 0 0 0 0 3.22h1.16a3.0351 3.0351 0 0 1 .01 6.07h-3.49a.715.715 0 0 1 0-1.43h3.49a1.60517 1.60517 0 0 0 0-3.21zm5.93 0v3.92a.71507.71507 0 0 1 -1.43 0v-6.96a3.05153 3.05153 0 0 1 3.04-3.04h1.16a3.05153 3.05153 0 0 1 3.04 3.04v6.96a.715.715 0 1 1 -1.43 0v-3.92zm7.28 3.92v-9.28a.71488.71488 0 0 1 .71-.72h3.49a3.04019 3.04019 0 0 1 0 6.08h-2.77v3.92a.71507.71507 0 0 1 -1.43 0zm12.05-8.21a.71276.71276 0 0 1 -.71-.71 2.14456 2.14456 0 0 0 -2.14-2.15h-28.58a2.14456 2.14456 0 0 0 -2.14 2.15v5.71a.71513.71513 0 0 1 -1.43 0v-5.71a3.58717 3.58717 0 0 1 3.57-3.58h28.58a3.58717 3.58717 0 0 1 3.57 3.58.71492.71492 0 0 1 -.72.71zm-28.93-6.43a11.79 11.79 0 0 1 23.58 0 .715.715 0 1 1 -1.43 0c-.57-13.73-20.15-13.74005-20.72 0a.71513.71513 0 0 1 -1.43 0zm31.79 2.96a.71513.71513 0 0 1 -1.43 0v-5.26a5.21287 5.21287 0 0 1 -4.17-8.84l.36-.36-3.26-3.26a5.222 5.222 0 0 1 -9.2-3.81h-4.6a5.42446 5.42446 0 0 1 -.87 3.38 5.24284 5.24284 0 0 1 -8.33.43l-3.26 3.26a5.21514 5.21514 0 0 1 -3.81 9.2v5.26a.71513.71513 0 0 1 -1.43 0v-5.97a.71493.71493 0 0 1 .71-.72h1.23a3.74953 3.74953 0 0 0 2.65-6.4l-.87-.86a.7122.7122 0 0 1 0-1.00995l4.27-4.28a.73089.73089 0 0 1 1.01 0l.87.87a3.75194 3.75194 0 0 0 6.4-2.65v-1.22005a.717.717 0 0 1 .72-.72h6.02a.717.717 0 0 1 .72.72v1.22a3.73742 3.73742 0 0 0 2.31 3.46 3.785 3.785 0 0 0 4.09-.81c.5-.42 1.13-1.55 1.88-.87l4.27 4.28a.7122.7122 0 0 1 0 1.00995l-.87006.86a3.76966 3.76966 0 0 0 2.65 6.4h1.23a.71493.71493 0 0 1 .71.72z"/><path d="m42.89 40.75a1.60685 1.60685 0 0 0 -1.6-1.61h-2.77v3.22h2.77a1.60685 1.60685 0 0 0 1.6-1.61z"/><path d="m34.19 40.75a1.609 1.609 0 0 0 -1.61-1.61h-1.16a1.609 1.609 0 0 0 -1.61 1.61v1.61h4.38z"/></svg>