<svg id="Solid" height="512" viewBox="0 0 64 64" width="512" xmlns="http://www.w3.org/2000/svg" style="fill:#fff;"><g><path d="m60.94 42.32c-1.39-3.23-4.55-5.32-8.07-5.32-.89 0-1.73-.39-2.3-1.08l-2.6-3.12c-.95-1.14-2.36-1.8-3.84-1.8h-12.83c-1.73 0-3.39.64-4.68 1.8l-7.15 6.43c-.55.5-1.26.77-2.01.77h-2.88c-3.17 0-6.3.83-9.05 2.4-2.18 1.25-3.53 3.58-3.53 6.08v7.52c0 .55.45 1 1 1h5.08c.48 2.83 2.95 5 5.92 5s5.44-2.17 5.92-5h21.16c.48 2.83 2.95 5 5.92 5s5.44-2.17 5.92-5h8.08c.55 0 1-.45 1-1v-8.51c0-1.79-.36-3.53-1.06-5.17zm-51.94 9.68h-4c-.552 0-1-.448-1-1s.448-1 1-1h4c.552 0 1 .448 1 1s-.448 1-1 1zm47-10h2c.552 0 1 .448 1 1s-.448 1-1 1h-2c-.552 0-1-.448-1-1s.448-1 1-1zm-42 2h4c.552 0 1 .448 1 1s-.448 1-1 1h-4c-.552 0-1-.448-1-1s.448-1 1-1zm45 8h-8c-.33 0-.65-.17-.83-.45l-1.71-2.55h-4.64c-.31.85-.97 1.51-1.82 1.82v3.18c0 .552-.448 1-1 1s-1-.448-1-1v-3h-2v1c0 .55-.45 1-1 1s-1-.45-1-1v-1h-2v1c0 .55-.45 1-1 1h-4.59l-1.696 1.704c-.188.19-.444.296-.711.296-.894 0-1.342-1.081-.71-1.713l1.997-1.997c.19-.18.44-.29.71-.29h4v-.18c-.85-.31-1.51-.97-1.82-1.82h-7.77l-2.7 2.71c-.19.18-.44.29-.71.29h-6c-.55 0-1-.45-1-1s.45-1 1-1h5.59l2.7-2.71c.19-.18.44-.29.71-.29h8v-2h-5c-.55 0-1-.45-1-1s.45-1 1-1h5v-2h-2c-.55 0-1-.45-1-1s.45-1 1-1h2.18c.31-.85.97-1.51 1.82-1.82v-1.18c0-.55.45-1 1-1s1 .45 1 1v1h2v-3c0-.552.448-1 1-1s1 .448 1 1v3h2v-1c0-.55.45-1 1-1s1 .45 1 1v1.18c.85.31 1.51.97 1.82 1.82h4.18c.27 0 .52.11.71.29l2.7 2.71h.59c.55 0 1 .45 1 1s-.45 1-1 1h-1c-.27 0-.52-.11-.71-.29l-2.7-2.71h-3.59v2h2c.55 0 1 .45 1 1s-.45 1-1 1h-2v2h5c.33 0 .65.17.83.45l1.71 2.55h7.46c.552 0 1 .448 1 1s-.448 1-1 1z"/><path d="m36 43h2v2h-2z"/><path d="m41 39h-8c-.55 0-1 .45-1 1v8c0 .55.45 1 1 1h8c.55 0 1-.45 1-1v-8c0-.55-.45-1-1-1zm-1 7c0 .552-.448 1-1 1h-4c-.552 0-1-.448-1-1v-4c0-.552.448-1 1-1h4c.552 0 1 .448 1 1z"/><path d="m6 15h4v4h-4zm6-2h4v6h-4zm10 6h-4v-9h4z"/><path d="m56 3h-10v4h5.172l-8 8h-12.172c-.567 0-1.107.241-1.487.662l-8.404 9.338h-16.109v4h17c.567 0 1.107-.241 1.487-.662l8.404-9.338h12.109c.53 0 1.039-.211 1.414-.586l8.586-8.586v5.172h4v-10c0-1.104-.896-2-2-2z"/><path d="m34 24h4v4h-4z"/><path d="m42 24h4v4h-4z"/><path d="m50 24h4v4h-4z"/></g></svg>