<svg id="Layer_3" enable-background="new 0 0 64 64" height="512" viewBox="0 0 64 64" width="512" xmlns="http://www.w3.org/2000/svg" style="fill:#fff;"><g><path d="m60 33c.552 0 1-.448 1-1v-20c0-.552-.448-1-1-1h-20c-.552 0-1 .448-1 1v20c0 .552.448 1 1 1zm-12-20h4v8.131l-1.445-.963c-.336-.224-.773-.224-1.109 0l-1.446.963zm-7 0h5v10c0 .369.203.708.528.882.324.173.72.153 1.026-.05l2.446-1.63 2.445 1.63c.168.112.361.168.555.168.162 0 .324-.039.472-.118.325-.174.528-.513.528-.882v-10h5v18h-18z"/><path d="m62 35h-25.259l-6.784-22.291c-.128-.421-.517-.709-.957-.709h-7c-.552 0-1 .448-1 1v4c0 .552.448 1 1 1h3.259l.609 2h-12.01c-.447-1.72-2-3-3.858-3-2.206 0-4 1.794-4 4s1.794 4 4 4c1.858 0 3.411-1.28 3.858-3h12.619l1.217 4h-12.694c-.265 0-.52.105-.707.293l-2.707 2.707h-2.728c-.447-1.72-2-3-3.858-3-2.206 0-4 1.794-4 4s1.794 4 4 4c1.858 0 3.411-1.28 3.858-3h3.142c.265 0 .52-.105.707-.293l2.707-2.707h12.889l2.739 9h-4.042v-2c0-.553-.448-1-1-1h-3.142c-.447-1.72-2-3-3.858-3-2.206 0-4 1.794-4 4s1.794 4 4 4c1.858 0 3.411-1.279 3.858-3h2.142v2c0 .553.448 1 1 1h5.651l.393 1.291c.127.421.516.709.956.709h29c.552 0 1-.447 1-1v-4c0-.553-.448-1-1-1zm-52-12c-1.103 0-2-.897-2-2s.897-2 2-2 2 .897 2 2-.897 2-2 2zm-5 9c-1.103 0-2-.897-2-2s.897-2 2-2 2 .897 2 2-.897 2-2 2zm14 5c-1.103 0-2-.897-2-2s.897-2 2-2 2 .897 2 2-.897 2-2 2zm42 2h-27.259l-6.784-22.291c-.128-.421-.517-.709-.957-.709h-3v-2h5.259l6.784 22.291c.128.421.517.709.957.709h25z"/><path d="m14 48c1.858 0 3.411-1.279 3.858-3h7.728l3.707 3.707c.187.188.442.293.707.293h6.101c.465 2.279 2.484 4 4.899 4 2.757 0 5-2.243 5-5s-2.243-5-5-5c-2.414 0-4.434 1.721-4.899 4h-5.687l-3.707-3.707c-.187-.188-.442-.293-.707-.293h-8.142c-.447-1.721-2-3-3.858-3-2.206 0-4 1.794-4 4s1.794 4 4 4zm27-3c1.654 0 3 1.346 3 3s-1.346 3-3 3-3-1.346-3-3 1.346-3 3-3zm-27-3c1.103 0 2 .897 2 2s-.897 2-2 2-2-.897-2-2 .897-2 2-2z"/><path d="m58 43c-2.757 0-5 2.243-5 5s2.243 5 5 5 5-2.243 5-5-2.243-5-5-5zm0 8c-1.654 0-3-1.346-3-3s1.346-3 3-3 3 1.346 3 3-1.346 3-3 3z"/></g></svg>